<svg width="200" height="200" xmlns="http://www.w3.org/2000/svg">
  <rect width="200" height="200" fill="white"/>
  <!-- Mock QR Code Pattern -->
  <g fill="black">
    <!-- QR Code Corners -->
    <rect x="10" y="10" width="60" height="60"/>
    <rect x="130" y="10" width="60" height="60"/>
    <rect x="10" y="130" width="60" height="60"/>
    <!-- Fake data pattern -->
    <rect x="30" y="30" width="20" height="20" fill="white"/>
    <rect x="150" y="30" width="20" height="20" fill="white"/>
    <rect x="30" y="150" width="20" height="20" fill="white"/>
    <!-- Data dots -->
    <rect x="90" y="20" width="10" height="10"/>
    <rect x="110" y="20" width="10" height="10"/>
    <rect x="90" y="40" width="10" height="10"/>
    <rect x="20" y="90" width="10" height="10"/>
    <rect x="40" y="90" width="10" height="10"/>
    <rect x="90" y="90" width="10" height="10"/>
    <rect x="110" y="90" width="10" height="10"/>
    <rect x="130" y="90" width="10" height="10"/>
    <rect x="150" y="90" width="10" height="10"/>
    <rect x="170" y="90" width="10" height="10"/>
  </g>
</svg>